<svg width="16" height="16" viewBox="0 0 16 16" fill="none" xmlns="http://www.w3.org/2000/svg">
<path d="M7.75 0.25C12.0312 0.25 15.5 3.71875 15.5 8C15.5 12.2812 12.0312 15.75 7.75 15.75C3.46875 15.75 0 12.2812 0 8C0 3.71875 3.46875 0.25 7.75 0.25ZM13.3438 5.25C12.6875 3.9375 11.5938 2.90625 10.25 2.3125C10.6875 3.125 11.0312 4.125 11.25 5.25H13.3438ZM7.75 1.75C7.15625 1.75 6.21875 3.0625 5.75 5.25H9.71875C9.25 3.0625 8.3125 1.75 7.75 1.75ZM1.5 8C1.5 8.4375 1.53125 8.875 1.625 9.25H4.03125C4 8.84375 4 8.4375 4 8C4 7.59375 4 7.1875 4.03125 6.75H1.625C1.53125 7.15625 1.5 7.59375 1.5 8ZM2.125 10.75C2.78125 12.0625 3.875 13.125 5.21875 13.7188C4.78125 12.9062 4.4375 11.9062 4.21875 10.75H2.125ZM4.21875 5.25C4.4375 4.125 4.78125 3.125 5.21875 2.3125C3.875 2.90625 2.78125 3.9375 2.125 5.25H4.21875ZM7.75 14.25C8.3125 14.25 9.25 12.9688 9.71875 10.75H5.75C6.21875 12.9688 7.15625 14.25 7.75 14.25ZM9.9375 9.25C9.96875 8.875 10 8.4375 10 8C10 7.5625 9.96875 7.15625 9.9375 6.75H5.53125C5.5 7.15625 5.5 7.5625 5.5 8C5.5 8.4375 5.5 8.875 5.53125 9.25H9.9375ZM10.25 13.7188C11.5938 13.125 12.6875 12.0625 13.3438 10.75H11.25C11.0312 11.9062 10.6875 12.9062 10.25 13.7188ZM11.4375 9.25H13.875C13.9375 8.875 14 8.4375 14 8C14 7.59375 13.9375 7.15625 13.875 6.75H11.4375C11.4688 7.1875 11.5 7.59375 11.5 8C11.5 8.4375 11.4688 8.84375 11.4375 9.25Z" fill="black" fill-opacity="0.2"/>
</svg>
