<svg width="16" height="16" viewBox="0 0 16 16" fill="none" xmlns="http://www.w3.org/2000/svg">
<path d="M15.75 7.25C15.75 9.875 14.0938 11.875 11 11.875C10.0312 11.875 9.28125 11.6562 9.125 10.6875C8.5625 11.4688 7.5625 12 6.65625 12C4.75 12 3.75 10.7188 3.75 8.8125C3.75 6 5.71875 4.03125 7.96875 4.03125C8.875 4.03125 9.625 4.40625 10 5C10 4.84375 10.0312 4.75 10.0625 4.5625C10.0938 4.40625 10.25 4.28125 10.4375 4.25H11.6562C11.875 4.25 12.0625 4.46875 12.0312 4.71875L11.125 9.34375C11 9.9375 11.0312 10.3438 11.625 10.3438C12.9062 10.3438 14.25 9.25 14.25 7.25C14.25 3.8125 11.4062 1.75 8 1.75C4.53125 1.75 1.75 4.5625 1.75 8C1.75 11.4688 4.53125 14.25 8 14.25C9.3125 14.25 10.5938 13.8438 11.6562 13.0625C11.8125 12.9688 12.0312 12.9688 12.1562 13.125L12.6562 13.7188C12.7812 13.875 12.75 14.125 12.5938 14.25C11.25 15.2188 9.625 15.75 8 15.75C3.6875 15.75 0.25 12.3125 0.25 8C0.25 3.71875 3.6875 0.25 8 0.25C12.3125 0.25 15.75 3 15.75 7.25ZM7.1875 10.3125C8.46875 10.3125 9.5 8.84375 9.5 7.375C9.5 6.4375 9.03125 5.75 8.09375 5.75C7 5.75 5.75 6.875 5.75 8.6875C5.75 9.6875 6.28125 10.3125 7.1875 10.3125Z" fill="black" fill-opacity="0.2"/>
</svg>
