<svg width="14" height="15" viewBox="0 0 14 15" fill="none" xmlns="http://www.w3.org/2000/svg">
<path d="M11.6094 9.88281L13.1406 10.7852C13.25 10.8398 13.2773 10.9766 13.2227 11.0859L13.0039 11.4414C12.9492 11.5508 12.8125 11.6055 12.7031 11.5234L11.1719 10.6484L11.5547 12.0977C11.582 12.207 11.5273 12.3438 11.418 12.3711L10.9805 12.4805C10.8711 12.5078 10.7617 12.4258 10.7344 12.3164L10.1055 10.0195L7.5625 8.51562V11.5234L9.20312 13.1914C9.3125 13.3008 9.3125 13.4375 9.20312 13.5195L8.90234 13.8203C8.82031 13.9023 8.68359 13.9023 8.60156 13.8203L7.53516 12.7539V14.5312C7.53516 14.668 7.45312 14.75 7.34375 14.75H6.90625C6.76953 14.75 6.6875 14.668 6.6875 14.5312V12.7539L5.62109 13.8203C5.53906 13.9023 5.40234 13.9023 5.32031 13.8203L5.01953 13.5195C4.9375 13.4375 4.9375 13.3008 5.01953 13.1914L6.6875 11.5234V8.51562L4.11719 10.0195L3.51562 12.3164C3.48828 12.4258 3.35156 12.5078 3.24219 12.4805L2.83203 12.3711C2.72266 12.3438 2.64062 12.207 2.66797 12.0977L3.05078 10.6484L1.51953 11.5234C1.4375 11.5781 1.30078 11.5508 1.24609 11.4414L1.02734 11.0586C0.945312 10.9766 1 10.8398 1.10938 10.7852L2.61328 9.88281L1.19141 9.5C1.08203 9.47266 1 9.33594 1.02734 9.22656L1.13672 8.78906C1.16406 8.67969 1.30078 8.625 1.41016 8.65234L3.67969 9.25391L6.25 7.75L3.67969 6.27344L1.41016 6.875C1.30078 6.90234 1.16406 6.84766 1.13672 6.73828L1.02734 6.30078C1 6.19141 1.08203 6.05469 1.19141 6.02734L2.61328 5.64453L1.08203 4.74219C1 4.6875 0.945312 4.55078 1.02734 4.44141L1.21875 4.05859C1.30078 3.97656 1.41016 3.92188 1.51953 3.97656L3.05078 4.87891L2.66797 3.42969C2.64062 3.32031 2.69531 3.18359 2.83203 3.15625L3.24219 3.04688C3.35156 3.01953 3.48828 3.07422 3.51562 3.21094L4.11719 5.50781L6.6875 7.01172V4.00391L5.01953 2.30859C4.9375 2.22656 4.9375 2.08984 5.01953 2.00781L5.32031 1.70703C5.40234 1.625 5.53906 1.625 5.62109 1.70703L6.6875 2.77344V0.96875C6.6875 0.859375 6.76953 0.75 6.90625 0.75H7.31641C7.45312 0.75 7.53516 0.859375 7.53516 0.96875V2.77344L8.60156 1.70703C8.68359 1.625 8.82031 1.625 8.90234 1.70703L9.20312 2.00781C9.28516 2.08984 9.28516 2.22656 9.20312 2.30859L7.53516 4.00391V7.01172L10.1055 5.50781L10.707 3.21094C10.7344 3.07422 10.8711 3.01953 10.9805 3.04688L11.3906 3.15625C11.5273 3.18359 11.582 3.32031 11.5547 3.42969L11.1719 4.87891L12.7031 4.00391C12.8125 3.92188 12.9219 3.97656 13.0039 4.05859L13.1953 4.44141C13.2773 4.55078 13.2227 4.6875 13.1406 4.74219L11.6094 5.64453L13.0312 6.02734C13.168 6.05469 13.2227 6.19141 13.1953 6.30078L13.0859 6.73828C13.0586 6.84766 12.9219 6.90234 12.8125 6.875L10.543 6.27344L7.97266 7.75L10.543 9.25391L12.8125 8.65234C12.9219 8.625 13.0586 8.67969 13.0859 8.78906L13.1953 9.22656C13.2227 9.33594 13.168 9.47266 13.0312 9.5L11.6094 9.88281Z" fill="white"/>
</svg>
