<svg width="16" height="16" viewBox="0 0 16 16" fill="none" xmlns="http://www.w3.org/2000/svg">
<path d="M15.8736 1.50957L15.7834 1.1146L14.9079 1.0921L14.8854 0.216659L14.4905 0.126441C13.5323 -0.0924032 12.1805 -0.0243094 10.8744 0.308534C9.90155 0.556472 8.56287 1.05247 7.34134 2.03528C6.14368 2.06616 4.36627 2.87072 3.41665 3.82038C3.16121 4.07582 3.03643 4.40241 3.05577 4.76494C3.08096 5.23725 3.35621 5.76925 3.87383 6.34616C3.97549 6.45947 4.0763 6.56294 4.16899 6.65372C3.85415 7.63241 3.74227 8.56254 3.77533 9.36732C2.36552 9.26488 0.806335 9.77566 0.254804 10.4014C0.0123662 10.6764 -0.0614775 11.0028 0.0522725 11.2969C0.266616 11.8509 0.855991 11.9567 1.42602 12.059C2.01077 12.164 2.67362 12.2829 3.1953 12.8047C3.71699 13.3264 3.83596 13.9892 3.94093 14.5739C4.04321 15.1439 4.14902 15.7333 4.70302 15.9477C4.79358 15.9827 4.88724 16 4.98155 16C5.19334 16 5.40824 15.9129 5.59855 15.7452C6.2243 15.1936 6.73512 13.6346 6.63265 12.2246C6.72255 12.2283 6.81402 12.2302 6.90696 12.2302C7.6459 12.2302 8.47702 12.1106 9.34643 11.8309C9.44071 11.9278 9.54965 12.0343 9.6693 12.1416C10.2462 12.6593 10.7782 12.9345 11.2505 12.9597C11.2749 12.961 11.2991 12.9616 11.3231 12.9616C11.6566 12.9616 11.9568 12.837 12.1951 12.5988C13.1542 11.6397 13.9653 9.83638 13.981 8.63866C14.9532 7.42253 15.4449 6.09307 15.6914 5.12554C16.0243 3.8195 16.0924 2.46772 15.8736 1.50957ZM4.09771 4.70947C4.09415 4.64325 4.10905 4.60366 4.15446 4.55822C4.59218 4.12057 5.27784 3.705 5.95927 3.4261C5.37459 4.13666 4.92527 4.86447 4.59049 5.58163C4.32509 5.27257 4.11015 4.94257 4.09771 4.70947ZM11.4573 11.861C11.4119 11.9064 11.3722 11.9211 11.3064 11.9178C11.0703 11.9055 10.7321 11.6823 10.4176 11.4098C11.1459 11.0699 11.8852 10.612 12.6063 10.014C12.3275 10.7093 11.904 11.4143 11.4573 11.861ZM14.6804 4.86788C14.5839 5.24641 14.4456 5.68682 14.2483 6.15254C13.1318 6.015 12.0926 5.50985 11.2914 4.7086C10.7236 4.14078 10.3098 3.46897 10.0616 2.71182L9.07012 3.03685C9.3698 3.95103 9.8689 4.76172 10.5536 5.44641C11.4321 6.32494 12.5481 6.9081 13.7556 7.13157C13.4665 7.6201 13.105 8.10907 12.6531 8.56091C11.6407 9.57322 10.4505 10.3385 9.21096 10.7739C8.13805 11.1508 7.0329 11.2757 6.09899 11.1253L5.31952 10.9999L5.50974 11.7662C5.65305 12.3434 5.62746 13.0907 5.43955 13.8162C5.31824 14.2847 5.16577 14.605 5.04737 14.79C5.01765 14.667 4.99049 14.5154 4.9679 14.3896C4.84902 13.7272 4.68618 12.8199 3.93308 12.0668C3.17999 11.3137 2.27274 11.1509 1.61033 11.032C1.48446 11.0094 1.3329 10.9822 1.2099 10.9525C1.3949 10.8341 1.71518 10.6817 2.18371 10.5603C2.90924 10.3724 3.65646 10.3468 4.23374 10.4902L4.99999 10.6804L4.87459 9.90091C4.7243 8.96703 4.84912 7.86185 5.22599 6.78894C5.66143 5.54941 6.42668 4.35916 7.43902 3.34682C8.64371 2.14213 10.1122 1.57944 11.1321 1.31947C12.2401 1.0371 13.2078 1.00394 13.8638 1.07835L13.8903 2.1095L14.9215 2.136C14.9959 2.79222 14.9627 3.75997 14.6804 4.86788Z" fill="white"/>
</svg>
